<mxfile host="Electron" agent="Mozilla/5.0 (Macintosh; Intel Mac OS X 10_15_7) AppleWebKit/537.36 (KHTML, like Gecko) draw.io/25.0.2 Chrome/128.0.6613.186 Electron/32.2.5 Safari/537.36" version="25.0.2" pages="2">
  <diagram name="IT-ландшафт компании" id="YN6UnYB_BdfZj_DXTk7v">
    <mxGraphModel dx="1173" dy="835" grid="1" gridSize="10" guides="1" tooltips="1" connect="1" arrows="1" fold="1" page="1" pageScale="1" pageWidth="827" pageHeight="1169" math="0" shadow="0">
      <root>
        <mxCell id="0" />
        <mxCell id="1" parent="0" />
        <mxCell id="C1h7YrvM656b1or1foiA-16" value="Управление обслуживанием в сети отделений" style="rounded=0;whiteSpace=wrap;html=1;" parent="1" vertex="1">
          <mxGeometry x="160" y="1140" width="120" height="60" as="geometry" />
        </mxCell>
        <mxCell id="C1h7YrvM656b1or1foiA-17" value="Управление IT" style="rounded=0;whiteSpace=wrap;html=1;" parent="1" vertex="1">
          <mxGeometry x="640" y="1140" width="120" height="60" as="geometry" />
        </mxCell>
        <mxCell id="C1h7YrvM656b1or1foiA-18" value="Управление обслуживанием депозитных продуктов" style="rounded=0;whiteSpace=wrap;html=1;" parent="1" vertex="1">
          <mxGeometry x="280" y="1140" width="120" height="60" as="geometry" />
        </mxCell>
        <mxCell id="C1h7YrvM656b1or1foiA-19" value="Управление обслуживанием кредитных продуктов" style="rounded=0;whiteSpace=wrap;html=1;" parent="1" vertex="1">
          <mxGeometry x="400" y="1140" width="120" height="60" as="geometry" />
        </mxCell>
        <mxCell id="C1h7YrvM656b1or1foiA-21" value="Кол-центр банка" style="rounded=0;whiteSpace=wrap;html=1;" parent="1" vertex="1">
          <mxGeometry x="760" y="1140" width="120" height="60" as="geometry" />
        </mxCell>
        <mxCell id="C1h7YrvM656b1or1foiA-22" value="Партнёрский кол-центр" style="rounded=0;whiteSpace=wrap;html=1;" parent="1" vertex="1">
          <mxGeometry x="880" y="1140" width="120" height="60" as="geometry" />
        </mxCell>
        <mxCell id="C1h7YrvM656b1or1foiA-24" value="Команда цифровой трансформации" style="rounded=0;whiteSpace=wrap;html=1;" parent="1" vertex="1">
          <mxGeometry x="520" y="1140" width="120" height="60" as="geometry" />
        </mxCell>
        <mxCell id="C1h7YrvM656b1or1foiA-25" value="Продажи (через интернет-банк, сайт, кол-центр, отделения)" style="rounded=0;whiteSpace=wrap;html=1;" parent="1" vertex="1">
          <mxGeometry x="170" y="80" width="120" height="60" as="geometry" />
        </mxCell>
        <mxCell id="C1h7YrvM656b1or1foiA-26" value="Поддержка клиентов (в отделениях, через интернет-банк, через сайт, кол-центр)" style="rounded=0;whiteSpace=wrap;html=1;" parent="1" vertex="1">
          <mxGeometry x="290" y="80" width="120" height="60" as="geometry" />
        </mxCell>
        <mxCell id="C1h7YrvM656b1or1foiA-27" value="Управление депозитами (создание и обслуживание)" style="rounded=0;whiteSpace=wrap;html=1;" parent="1" vertex="1">
          <mxGeometry x="410" y="80" width="120" height="60" as="geometry" />
        </mxCell>
        <mxCell id="C1h7YrvM656b1or1foiA-28" value="Управление кредитами" style="rounded=0;whiteSpace=wrap;html=1;" parent="1" vertex="1">
          <mxGeometry x="530" y="80" width="120" height="60" as="geometry" />
        </mxCell>
        <mxCell id="C1h7YrvM656b1or1foiA-29" value="Анализ и управление рисками" style="rounded=0;whiteSpace=wrap;html=1;" parent="1" vertex="1">
          <mxGeometry x="650" y="80" width="120" height="60" as="geometry" />
        </mxCell>
        <mxCell id="C1h7YrvM656b1or1foiA-30" value="Автоматизация бизнес-процессов" style="rounded=0;whiteSpace=wrap;html=1;" parent="1" vertex="1">
          <mxGeometry x="770" y="80" width="120" height="60" as="geometry" />
        </mxCell>
        <mxCell id="Uhwb8loL4FCy_pv8roUZ-8" value="Продажи в сети отделений" style="rounded=0;whiteSpace=wrap;html=1;" vertex="1" parent="1">
          <mxGeometry x="40" y="1500" width="120" height="60" as="geometry" />
        </mxCell>
        <mxCell id="Uhwb8loL4FCy_pv8roUZ-9" value="Продажи через колл-центр" style="rounded=0;whiteSpace=wrap;html=1;" vertex="1" parent="1">
          <mxGeometry x="40" y="1200" width="120" height="60" as="geometry" />
        </mxCell>
        <mxCell id="Uhwb8loL4FCy_pv8roUZ-10" value="Digital оповещения клиентов" style="rounded=0;whiteSpace=wrap;html=1;" vertex="1" parent="1">
          <mxGeometry x="40" y="1260" width="120" height="60" as="geometry" />
        </mxCell>
        <mxCell id="Uhwb8loL4FCy_pv8roUZ-11" value="&amp;nbsp;Обслуживание депозитных процессов" style="rounded=0;whiteSpace=wrap;html=1;" vertex="1" parent="1">
          <mxGeometry x="40" y="1320" width="120" height="60" as="geometry" />
        </mxCell>
        <mxCell id="Uhwb8loL4FCy_pv8roUZ-12" value="Обслуживание кредитных процессов" style="rounded=0;whiteSpace=wrap;html=1;" vertex="1" parent="1">
          <mxGeometry x="40" y="1380" width="120" height="60" as="geometry" />
        </mxCell>
        <mxCell id="Uhwb8loL4FCy_pv8roUZ-13" value="Управление договорами" style="rounded=0;whiteSpace=wrap;html=1;" vertex="1" parent="1">
          <mxGeometry x="40" y="1440" width="120" height="60" as="geometry" />
        </mxCell>
        <mxCell id="Uhwb8loL4FCy_pv8roUZ-14" value="" style="rounded=0;whiteSpace=wrap;html=1;" vertex="1" parent="1">
          <mxGeometry x="40" y="1140" width="120" height="60" as="geometry" />
        </mxCell>
        <mxCell id="Uhwb8loL4FCy_pv8roUZ-57" value="" style="group" vertex="1" connectable="0" parent="1">
          <mxGeometry x="160" y="1200" width="840" height="360" as="geometry" />
        </mxCell>
        <mxCell id="Uhwb8loL4FCy_pv8roUZ-15" value="" style="rounded=0;whiteSpace=wrap;html=1;fillColor=none;" vertex="1" parent="Uhwb8loL4FCy_pv8roUZ-57">
          <mxGeometry width="120" height="60" as="geometry" />
        </mxCell>
        <mxCell id="Uhwb8loL4FCy_pv8roUZ-16" value="" style="rounded=0;whiteSpace=wrap;html=1;fillColor=none;" vertex="1" parent="Uhwb8loL4FCy_pv8roUZ-57">
          <mxGeometry x="120" width="120" height="60" as="geometry" />
        </mxCell>
        <mxCell id="Uhwb8loL4FCy_pv8roUZ-17" value="" style="rounded=0;whiteSpace=wrap;html=1;fillColor=none;" vertex="1" parent="Uhwb8loL4FCy_pv8roUZ-57">
          <mxGeometry x="240" width="120" height="60" as="geometry" />
        </mxCell>
        <mxCell id="Uhwb8loL4FCy_pv8roUZ-18" value="" style="rounded=0;whiteSpace=wrap;html=1;fillColor=none;" vertex="1" parent="Uhwb8loL4FCy_pv8roUZ-57">
          <mxGeometry x="360" width="120" height="60" as="geometry" />
        </mxCell>
        <mxCell id="Uhwb8loL4FCy_pv8roUZ-19" value="" style="rounded=0;whiteSpace=wrap;html=1;fillColor=none;" vertex="1" parent="Uhwb8loL4FCy_pv8roUZ-57">
          <mxGeometry x="480" width="120" height="60" as="geometry" />
        </mxCell>
        <mxCell id="Uhwb8loL4FCy_pv8roUZ-20" value="" style="rounded=0;whiteSpace=wrap;html=1;fillColor=none;" vertex="1" parent="Uhwb8loL4FCy_pv8roUZ-57">
          <mxGeometry x="600" width="120" height="60" as="geometry" />
        </mxCell>
        <mxCell id="Uhwb8loL4FCy_pv8roUZ-21" value="" style="rounded=0;whiteSpace=wrap;html=1;fillColor=none;" vertex="1" parent="Uhwb8loL4FCy_pv8roUZ-57">
          <mxGeometry x="720" width="120" height="60" as="geometry" />
        </mxCell>
        <mxCell id="Uhwb8loL4FCy_pv8roUZ-22" value="" style="rounded=0;whiteSpace=wrap;html=1;fillColor=none;" vertex="1" parent="Uhwb8loL4FCy_pv8roUZ-57">
          <mxGeometry y="60" width="120" height="60" as="geometry" />
        </mxCell>
        <mxCell id="Uhwb8loL4FCy_pv8roUZ-23" value="" style="rounded=0;whiteSpace=wrap;html=1;fillColor=none;" vertex="1" parent="Uhwb8loL4FCy_pv8roUZ-57">
          <mxGeometry x="120" y="60" width="120" height="60" as="geometry" />
        </mxCell>
        <mxCell id="Uhwb8loL4FCy_pv8roUZ-24" value="" style="rounded=0;whiteSpace=wrap;html=1;fillColor=none;" vertex="1" parent="Uhwb8loL4FCy_pv8roUZ-57">
          <mxGeometry x="240" y="60" width="120" height="60" as="geometry" />
        </mxCell>
        <mxCell id="Uhwb8loL4FCy_pv8roUZ-25" value="" style="rounded=0;whiteSpace=wrap;html=1;fillColor=none;" vertex="1" parent="Uhwb8loL4FCy_pv8roUZ-57">
          <mxGeometry x="360" y="60" width="120" height="60" as="geometry" />
        </mxCell>
        <mxCell id="Uhwb8loL4FCy_pv8roUZ-26" value="" style="rounded=0;whiteSpace=wrap;html=1;fillColor=none;" vertex="1" parent="Uhwb8loL4FCy_pv8roUZ-57">
          <mxGeometry x="480" y="60" width="120" height="60" as="geometry" />
        </mxCell>
        <mxCell id="Uhwb8loL4FCy_pv8roUZ-27" value="" style="rounded=0;whiteSpace=wrap;html=1;fillColor=none;" vertex="1" parent="Uhwb8loL4FCy_pv8roUZ-57">
          <mxGeometry x="600" y="60" width="120" height="60" as="geometry" />
        </mxCell>
        <mxCell id="Uhwb8loL4FCy_pv8roUZ-28" value="" style="rounded=0;whiteSpace=wrap;html=1;fillColor=none;" vertex="1" parent="Uhwb8loL4FCy_pv8roUZ-57">
          <mxGeometry x="720" y="60" width="120" height="60" as="geometry" />
        </mxCell>
        <mxCell id="Uhwb8loL4FCy_pv8roUZ-29" value="" style="rounded=0;whiteSpace=wrap;html=1;fillColor=none;" vertex="1" parent="Uhwb8loL4FCy_pv8roUZ-57">
          <mxGeometry y="120" width="120" height="60" as="geometry" />
        </mxCell>
        <mxCell id="Uhwb8loL4FCy_pv8roUZ-30" value="" style="rounded=0;whiteSpace=wrap;html=1;fillColor=none;" vertex="1" parent="Uhwb8loL4FCy_pv8roUZ-57">
          <mxGeometry x="120" y="120" width="120" height="60" as="geometry" />
        </mxCell>
        <mxCell id="Uhwb8loL4FCy_pv8roUZ-31" value="" style="rounded=0;whiteSpace=wrap;html=1;fillColor=none;" vertex="1" parent="Uhwb8loL4FCy_pv8roUZ-57">
          <mxGeometry x="240" y="120" width="120" height="60" as="geometry" />
        </mxCell>
        <mxCell id="Uhwb8loL4FCy_pv8roUZ-32" value="" style="rounded=0;whiteSpace=wrap;html=1;fillColor=none;" vertex="1" parent="Uhwb8loL4FCy_pv8roUZ-57">
          <mxGeometry x="360" y="120" width="120" height="60" as="geometry" />
        </mxCell>
        <mxCell id="Uhwb8loL4FCy_pv8roUZ-33" value="" style="rounded=0;whiteSpace=wrap;html=1;fillColor=none;" vertex="1" parent="Uhwb8loL4FCy_pv8roUZ-57">
          <mxGeometry x="480" y="120" width="120" height="60" as="geometry" />
        </mxCell>
        <mxCell id="Uhwb8loL4FCy_pv8roUZ-34" value="" style="rounded=0;whiteSpace=wrap;html=1;fillColor=none;" vertex="1" parent="Uhwb8loL4FCy_pv8roUZ-57">
          <mxGeometry x="600" y="120" width="120" height="60" as="geometry" />
        </mxCell>
        <mxCell id="Uhwb8loL4FCy_pv8roUZ-35" value="" style="rounded=0;whiteSpace=wrap;html=1;fillColor=none;" vertex="1" parent="Uhwb8loL4FCy_pv8roUZ-57">
          <mxGeometry x="720" y="120" width="120" height="60" as="geometry" />
        </mxCell>
        <mxCell id="Uhwb8loL4FCy_pv8roUZ-36" value="" style="rounded=0;whiteSpace=wrap;html=1;fillColor=none;" vertex="1" parent="Uhwb8loL4FCy_pv8roUZ-57">
          <mxGeometry y="180" width="120" height="60" as="geometry" />
        </mxCell>
        <mxCell id="Uhwb8loL4FCy_pv8roUZ-37" value="" style="rounded=0;whiteSpace=wrap;html=1;fillColor=none;" vertex="1" parent="Uhwb8loL4FCy_pv8roUZ-57">
          <mxGeometry x="120" y="180" width="120" height="60" as="geometry" />
        </mxCell>
        <mxCell id="Uhwb8loL4FCy_pv8roUZ-38" value="" style="rounded=0;whiteSpace=wrap;html=1;fillColor=none;" vertex="1" parent="Uhwb8loL4FCy_pv8roUZ-57">
          <mxGeometry x="240" y="180" width="120" height="60" as="geometry" />
        </mxCell>
        <mxCell id="Uhwb8loL4FCy_pv8roUZ-39" value="" style="rounded=0;whiteSpace=wrap;html=1;fillColor=none;" vertex="1" parent="Uhwb8loL4FCy_pv8roUZ-57">
          <mxGeometry x="360" y="180" width="120" height="60" as="geometry" />
        </mxCell>
        <mxCell id="Uhwb8loL4FCy_pv8roUZ-40" value="" style="rounded=0;whiteSpace=wrap;html=1;fillColor=none;" vertex="1" parent="Uhwb8loL4FCy_pv8roUZ-57">
          <mxGeometry x="480" y="180" width="120" height="60" as="geometry" />
        </mxCell>
        <mxCell id="Uhwb8loL4FCy_pv8roUZ-41" value="" style="rounded=0;whiteSpace=wrap;html=1;fillColor=none;" vertex="1" parent="Uhwb8loL4FCy_pv8roUZ-57">
          <mxGeometry x="600" y="180" width="120" height="60" as="geometry" />
        </mxCell>
        <mxCell id="Uhwb8loL4FCy_pv8roUZ-42" value="" style="rounded=0;whiteSpace=wrap;html=1;fillColor=none;" vertex="1" parent="Uhwb8loL4FCy_pv8roUZ-57">
          <mxGeometry x="720" y="180" width="120" height="60" as="geometry" />
        </mxCell>
        <mxCell id="Uhwb8loL4FCy_pv8roUZ-43" value="" style="rounded=0;whiteSpace=wrap;html=1;fillColor=none;" vertex="1" parent="Uhwb8loL4FCy_pv8roUZ-57">
          <mxGeometry y="240" width="120" height="60" as="geometry" />
        </mxCell>
        <mxCell id="Uhwb8loL4FCy_pv8roUZ-44" value="" style="rounded=0;whiteSpace=wrap;html=1;fillColor=none;" vertex="1" parent="Uhwb8loL4FCy_pv8roUZ-57">
          <mxGeometry x="120" y="240" width="120" height="60" as="geometry" />
        </mxCell>
        <mxCell id="Uhwb8loL4FCy_pv8roUZ-45" value="" style="rounded=0;whiteSpace=wrap;html=1;fillColor=none;" vertex="1" parent="Uhwb8loL4FCy_pv8roUZ-57">
          <mxGeometry x="240" y="240" width="120" height="60" as="geometry" />
        </mxCell>
        <mxCell id="Uhwb8loL4FCy_pv8roUZ-46" value="" style="rounded=0;whiteSpace=wrap;html=1;fillColor=none;" vertex="1" parent="Uhwb8loL4FCy_pv8roUZ-57">
          <mxGeometry x="360" y="240" width="120" height="60" as="geometry" />
        </mxCell>
        <mxCell id="Uhwb8loL4FCy_pv8roUZ-47" value="" style="rounded=0;whiteSpace=wrap;html=1;fillColor=none;" vertex="1" parent="Uhwb8loL4FCy_pv8roUZ-57">
          <mxGeometry x="480" y="240" width="120" height="60" as="geometry" />
        </mxCell>
        <mxCell id="Uhwb8loL4FCy_pv8roUZ-48" value="" style="rounded=0;whiteSpace=wrap;html=1;fillColor=none;" vertex="1" parent="Uhwb8loL4FCy_pv8roUZ-57">
          <mxGeometry x="600" y="240" width="120" height="60" as="geometry" />
        </mxCell>
        <mxCell id="Uhwb8loL4FCy_pv8roUZ-49" value="" style="rounded=0;whiteSpace=wrap;html=1;fillColor=none;" vertex="1" parent="Uhwb8loL4FCy_pv8roUZ-57">
          <mxGeometry x="720" y="240" width="120" height="60" as="geometry" />
        </mxCell>
        <mxCell id="Uhwb8loL4FCy_pv8roUZ-50" value="" style="rounded=0;whiteSpace=wrap;html=1;fillColor=none;" vertex="1" parent="Uhwb8loL4FCy_pv8roUZ-57">
          <mxGeometry y="300" width="120" height="60" as="geometry" />
        </mxCell>
        <mxCell id="Uhwb8loL4FCy_pv8roUZ-51" value="" style="rounded=0;whiteSpace=wrap;html=1;fillColor=none;" vertex="1" parent="Uhwb8loL4FCy_pv8roUZ-57">
          <mxGeometry x="120" y="300" width="120" height="60" as="geometry" />
        </mxCell>
        <mxCell id="Uhwb8loL4FCy_pv8roUZ-52" value="" style="rounded=0;whiteSpace=wrap;html=1;fillColor=none;" vertex="1" parent="Uhwb8loL4FCy_pv8roUZ-57">
          <mxGeometry x="240" y="300" width="120" height="60" as="geometry" />
        </mxCell>
        <mxCell id="Uhwb8loL4FCy_pv8roUZ-53" value="" style="rounded=0;whiteSpace=wrap;html=1;fillColor=none;" vertex="1" parent="Uhwb8loL4FCy_pv8roUZ-57">
          <mxGeometry x="360" y="300" width="120" height="60" as="geometry" />
        </mxCell>
        <mxCell id="Uhwb8loL4FCy_pv8roUZ-54" value="" style="rounded=0;whiteSpace=wrap;html=1;fillColor=none;" vertex="1" parent="Uhwb8loL4FCy_pv8roUZ-57">
          <mxGeometry x="480" y="300" width="120" height="60" as="geometry" />
        </mxCell>
        <mxCell id="Uhwb8loL4FCy_pv8roUZ-55" value="" style="rounded=0;whiteSpace=wrap;html=1;fillColor=none;" vertex="1" parent="Uhwb8loL4FCy_pv8roUZ-57">
          <mxGeometry x="600" y="300" width="120" height="60" as="geometry" />
        </mxCell>
        <mxCell id="Uhwb8loL4FCy_pv8roUZ-56" value="" style="rounded=0;whiteSpace=wrap;html=1;fillColor=none;" vertex="1" parent="Uhwb8loL4FCy_pv8roUZ-57">
          <mxGeometry x="720" y="300" width="120" height="60" as="geometry" />
        </mxCell>
        <mxCell id="Uhwb8loL4FCy_pv8roUZ-61" value="АБС" style="rounded=1;whiteSpace=wrap;html=1;fillColor=#CCCCCC;" vertex="1" parent="Uhwb8loL4FCy_pv8roUZ-57">
          <mxGeometry x="15" y="105" width="330" height="235" as="geometry" />
        </mxCell>
        <mxCell id="Uhwb8loL4FCy_pv8roUZ-60" value="Система кол-центра" style="rounded=1;whiteSpace=wrap;html=1;fillColor=#CCCCCC;" vertex="1" parent="Uhwb8loL4FCy_pv8roUZ-57">
          <mxGeometry x="525" y="10" width="160" height="45" as="geometry" />
        </mxCell>
        <mxCell id="Uhwb8loL4FCy_pv8roUZ-62" value="Система партнерского кол-центра" style="rounded=1;whiteSpace=wrap;html=1;fillColor=#CCCCCC;" vertex="1" parent="Uhwb8loL4FCy_pv8roUZ-57">
          <mxGeometry x="725" y="12" width="100" height="45" as="geometry" />
        </mxCell>
        <mxCell id="Uhwb8loL4FCy_pv8roUZ-63" value="Интернет банк" style="rounded=1;whiteSpace=wrap;html=1;fillColor=#CCCCCC;" vertex="1" parent="Uhwb8loL4FCy_pv8roUZ-57">
          <mxGeometry x="135" y="70" width="420" height="25" as="geometry" />
        </mxCell>
        <mxCell id="Uhwb8loL4FCy_pv8roUZ-64" value="Сайт" style="rounded=1;whiteSpace=wrap;html=1;fillColor=#CCCCCC;" vertex="1" parent="Uhwb8loL4FCy_pv8roUZ-57">
          <mxGeometry x="365" y="12" width="150" height="43" as="geometry" />
        </mxCell>
        <mxCell id="Uhwb8loL4FCy_pv8roUZ-66" value="&lt;font style=&quot;font-size: 22px;&quot;&gt;IT ландшафт компании&lt;/font&gt;" style="text;html=1;align=center;verticalAlign=middle;whiteSpace=wrap;rounded=0;" vertex="1" parent="1">
          <mxGeometry x="354" y="1070" width="266" height="30" as="geometry" />
        </mxCell>
      </root>
    </mxGraphModel>
  </diagram>
  <diagram id="zYK-BMs1mdLN3H2IznY8" name="Схема интеграции приложений">
    <mxGraphModel dx="2707" dy="222" grid="1" gridSize="10" guides="1" tooltips="1" connect="1" arrows="1" fold="1" page="1" pageScale="1" pageWidth="850" pageHeight="1100" math="0" shadow="0">
      <root>
        <mxCell id="0" />
        <mxCell id="1" parent="0" />
        <mxCell id="8HDtVF-WBR14o8vTxIzw-63" value="&lt;font style=&quot;font-size: 22px;&quot;&gt;Схема интеграции приложений&lt;/font&gt;" style="text;html=1;align=center;verticalAlign=middle;whiteSpace=wrap;rounded=0;" vertex="1" parent="1">
          <mxGeometry x="280" y="1570" width="366" height="30" as="geometry" />
        </mxCell>
        <mxCell id="8HDtVF-WBR14o8vTxIzw-80" style="edgeStyle=orthogonalEdgeStyle;rounded=0;orthogonalLoop=1;jettySize=auto;html=1;" edge="1" parent="1" source="8HDtVF-WBR14o8vTxIzw-64" target="8HDtVF-WBR14o8vTxIzw-79">
          <mxGeometry relative="1" as="geometry" />
        </mxCell>
        <mxCell id="8HDtVF-WBR14o8vTxIzw-84" value="Оповещение&lt;br&gt;&amp;nbsp;клиенту" style="edgeLabel;html=1;align=center;verticalAlign=middle;resizable=0;points=[];labelBackgroundColor=none;" vertex="1" connectable="0" parent="8HDtVF-WBR14o8vTxIzw-80">
          <mxGeometry x="-0.1111" y="1" relative="1" as="geometry">
            <mxPoint y="1" as="offset" />
          </mxGeometry>
        </mxCell>
        <mxCell id="8HDtVF-WBR14o8vTxIzw-64" value="АБС" style="rounded=1;whiteSpace=wrap;html=1;fillColor=#CCCCCC;" vertex="1" parent="1">
          <mxGeometry x="170" y="1640" width="140" height="470" as="geometry" />
        </mxCell>
        <mxCell id="8HDtVF-WBR14o8vTxIzw-70" style="edgeStyle=orthogonalEdgeStyle;rounded=0;orthogonalLoop=1;jettySize=auto;html=1;entryX=0;entryY=0.25;entryDx=0;entryDy=0;" edge="1" parent="1" source="8HDtVF-WBR14o8vTxIzw-65" target="8HDtVF-WBR14o8vTxIzw-64">
          <mxGeometry relative="1" as="geometry">
            <Array as="points">
              <mxPoint x="170" y="1700" />
            </Array>
          </mxGeometry>
        </mxCell>
        <mxCell id="8HDtVF-WBR14o8vTxIzw-71" value="Заводит&lt;br&gt;обращение" style="edgeLabel;html=1;align=center;verticalAlign=middle;resizable=0;points=[];labelBackgroundColor=none;" vertex="1" connectable="0" parent="8HDtVF-WBR14o8vTxIzw-70">
          <mxGeometry x="-0.2346" y="2" relative="1" as="geometry">
            <mxPoint as="offset" />
          </mxGeometry>
        </mxCell>
        <mxCell id="8HDtVF-WBR14o8vTxIzw-65" value="Сотрудник &lt;br&gt;кол-центра" style="shape=umlActor;verticalLabelPosition=bottom;verticalAlign=top;html=1;outlineConnect=0;" vertex="1" parent="1">
          <mxGeometry x="20" y="1669" width="30" height="61" as="geometry" />
        </mxCell>
        <mxCell id="8HDtVF-WBR14o8vTxIzw-73" style="edgeStyle=orthogonalEdgeStyle;rounded=0;orthogonalLoop=1;jettySize=auto;html=1;entryX=0;entryY=0.383;entryDx=0;entryDy=0;entryPerimeter=0;" edge="1" parent="1" source="8HDtVF-WBR14o8vTxIzw-72" target="8HDtVF-WBR14o8vTxIzw-64">
          <mxGeometry relative="1" as="geometry">
            <mxPoint x="160" y="1820" as="targetPoint" />
            <Array as="points">
              <mxPoint x="100" y="1820" />
              <mxPoint x="100" y="1820" />
            </Array>
          </mxGeometry>
        </mxCell>
        <mxCell id="8HDtVF-WBR14o8vTxIzw-74" value="Обработка &lt;br&gt;заявки" style="edgeLabel;html=1;align=center;verticalAlign=middle;resizable=0;points=[];labelBackgroundColor=none;" vertex="1" connectable="0" parent="8HDtVF-WBR14o8vTxIzw-73">
          <mxGeometry x="0.1847" y="-1" relative="1" as="geometry">
            <mxPoint x="-11" as="offset" />
          </mxGeometry>
        </mxCell>
        <mxCell id="8HDtVF-WBR14o8vTxIzw-72" value="Сотрудник &lt;br&gt;бек-офиса" style="shape=umlActor;verticalLabelPosition=bottom;verticalAlign=top;html=1;outlineConnect=0;" vertex="1" parent="1">
          <mxGeometry x="20" y="1786" width="30" height="61" as="geometry" />
        </mxCell>
        <mxCell id="8HDtVF-WBR14o8vTxIzw-95" value="Просмотр маркетинговой&lt;br&gt;информации" style="edgeStyle=orthogonalEdgeStyle;rounded=0;orthogonalLoop=1;jettySize=auto;html=1;" edge="1" parent="1" source="8HDtVF-WBR14o8vTxIzw-75" target="8HDtVF-WBR14o8vTxIzw-94">
          <mxGeometry relative="1" as="geometry" />
        </mxCell>
        <mxCell id="8HDtVF-WBR14o8vTxIzw-122" style="edgeStyle=orthogonalEdgeStyle;rounded=0;orthogonalLoop=1;jettySize=auto;html=1;entryX=0.5;entryY=0;entryDx=0;entryDy=0;" edge="1" parent="1" source="8HDtVF-WBR14o8vTxIzw-75" target="8HDtVF-WBR14o8vTxIzw-121">
          <mxGeometry relative="1" as="geometry">
            <Array as="points">
              <mxPoint x="670" y="1875" />
              <mxPoint x="670" y="1970" />
              <mxPoint x="565" y="1970" />
            </Array>
          </mxGeometry>
        </mxCell>
        <mxCell id="8HDtVF-WBR14o8vTxIzw-123" value="Пользуется услугами банка" style="edgeLabel;html=1;align=center;verticalAlign=middle;resizable=0;points=[];" vertex="1" connectable="0" parent="8HDtVF-WBR14o8vTxIzw-122">
          <mxGeometry x="0.545" y="-2" relative="1" as="geometry">
            <mxPoint x="30" y="-17" as="offset" />
          </mxGeometry>
        </mxCell>
        <mxCell id="8HDtVF-WBR14o8vTxIzw-75" value="Клиент" style="shape=umlActor;verticalLabelPosition=bottom;verticalAlign=top;html=1;outlineConnect=0;" vertex="1" parent="1">
          <mxGeometry x="770" y="1844.5" width="30" height="61" as="geometry" />
        </mxCell>
        <mxCell id="8HDtVF-WBR14o8vTxIzw-82" style="edgeStyle=orthogonalEdgeStyle;rounded=0;orthogonalLoop=1;jettySize=auto;html=1;entryX=0;entryY=0.5;entryDx=0;entryDy=0;" edge="1" parent="1" source="8HDtVF-WBR14o8vTxIzw-79" target="8HDtVF-WBR14o8vTxIzw-112">
          <mxGeometry relative="1" as="geometry">
            <mxPoint x="770" y="1875" as="targetPoint" />
          </mxGeometry>
        </mxCell>
        <mxCell id="8HDtVF-WBR14o8vTxIzw-85" value="Доставляет &lt;br&gt;оповещение по смс" style="edgeLabel;html=1;align=center;verticalAlign=middle;resizable=0;points=[];labelBackgroundColor=none;" vertex="1" connectable="0" parent="8HDtVF-WBR14o8vTxIzw-82">
          <mxGeometry x="-0.4833" y="1" relative="1" as="geometry">
            <mxPoint x="19" y="1" as="offset" />
          </mxGeometry>
        </mxCell>
        <mxCell id="8HDtVF-WBR14o8vTxIzw-79" value="СМС-шлюз" style="rounded=1;whiteSpace=wrap;html=1;fillColor=#CCCCCC;" vertex="1" parent="1">
          <mxGeometry x="440" y="1853.5" width="150" height="43" as="geometry" />
        </mxCell>
        <mxCell id="8HDtVF-WBR14o8vTxIzw-86" value="Сотрудник &lt;br&gt;кредитования" style="shape=umlActor;verticalLabelPosition=bottom;verticalAlign=top;html=1;outlineConnect=0;" vertex="1" parent="1">
          <mxGeometry x="20" y="1920" width="30" height="61" as="geometry" />
        </mxCell>
        <mxCell id="8HDtVF-WBR14o8vTxIzw-92" style="edgeStyle=orthogonalEdgeStyle;rounded=0;orthogonalLoop=1;jettySize=auto;html=1;entryX=0.001;entryY=0.66;entryDx=0;entryDy=0;entryPerimeter=0;" edge="1" parent="1" source="8HDtVF-WBR14o8vTxIzw-86" target="8HDtVF-WBR14o8vTxIzw-64">
          <mxGeometry relative="1" as="geometry" />
        </mxCell>
        <mxCell id="8HDtVF-WBR14o8vTxIzw-93" value="Анализ уровня&amp;nbsp;&lt;br&gt;риска клиента" style="edgeLabel;html=1;align=center;verticalAlign=middle;resizable=0;points=[];labelBackgroundColor=none;" vertex="1" connectable="0" parent="8HDtVF-WBR14o8vTxIzw-92">
          <mxGeometry x="0.3094" y="2" relative="1" as="geometry">
            <mxPoint x="-19" y="2" as="offset" />
          </mxGeometry>
        </mxCell>
        <mxCell id="8HDtVF-WBR14o8vTxIzw-94" value="Сайт" style="rounded=1;whiteSpace=wrap;html=1;fillColor=#CCCCCC;" vertex="1" parent="1">
          <mxGeometry x="710" y="2000" width="150" height="43" as="geometry" />
        </mxCell>
        <mxCell id="8HDtVF-WBR14o8vTxIzw-99" style="edgeStyle=orthogonalEdgeStyle;rounded=0;orthogonalLoop=1;jettySize=auto;html=1;" edge="1" parent="1" source="8HDtVF-WBR14o8vTxIzw-98" target="8HDtVF-WBR14o8vTxIzw-94">
          <mxGeometry relative="1" as="geometry" />
        </mxCell>
        <mxCell id="8HDtVF-WBR14o8vTxIzw-100" value="Публикация&lt;br&gt;маркетинговой&lt;br&gt;информации" style="edgeLabel;html=1;align=center;verticalAlign=middle;resizable=0;points=[];labelBackgroundColor=none;" vertex="1" connectable="0" parent="8HDtVF-WBR14o8vTxIzw-99">
          <mxGeometry x="0.3233" y="-2" relative="1" as="geometry">
            <mxPoint x="-2" y="24" as="offset" />
          </mxGeometry>
        </mxCell>
        <mxCell id="8HDtVF-WBR14o8vTxIzw-98" value="Маркетологи" style="shape=umlActor;verticalLabelPosition=bottom;verticalAlign=top;html=1;outlineConnect=0;" vertex="1" parent="1">
          <mxGeometry x="770" y="2172" width="30" height="61" as="geometry" />
        </mxCell>
        <mxCell id="8HDtVF-WBR14o8vTxIzw-101" value="Сотрудники&amp;nbsp;&lt;br&gt;бухгалтерии" style="shape=umlActor;verticalLabelPosition=bottom;verticalAlign=top;html=1;outlineConnect=0;" vertex="1" parent="1">
          <mxGeometry x="20" y="2030" width="30" height="61" as="geometry" />
        </mxCell>
        <mxCell id="8HDtVF-WBR14o8vTxIzw-104" style="edgeStyle=orthogonalEdgeStyle;rounded=0;orthogonalLoop=1;jettySize=auto;html=1;entryX=-0.021;entryY=0.894;entryDx=0;entryDy=0;entryPerimeter=0;" edge="1" parent="1" source="8HDtVF-WBR14o8vTxIzw-101" target="8HDtVF-WBR14o8vTxIzw-64">
          <mxGeometry relative="1" as="geometry" />
        </mxCell>
        <mxCell id="8HDtVF-WBR14o8vTxIzw-105" value="Финансовые&lt;br&gt;операции" style="edgeLabel;html=1;align=center;verticalAlign=middle;resizable=0;points=[];labelBackgroundColor=none;" vertex="1" connectable="0" parent="8HDtVF-WBR14o8vTxIzw-104">
          <mxGeometry x="-0.1918" relative="1" as="geometry">
            <mxPoint x="1" as="offset" />
          </mxGeometry>
        </mxCell>
        <mxCell id="8HDtVF-WBR14o8vTxIzw-106" value="Система кол-центра" style="rounded=1;whiteSpace=wrap;html=1;fillColor=#CCCCCC;" vertex="1" parent="1">
          <mxGeometry x="180" y="2180" width="160" height="45" as="geometry" />
        </mxCell>
        <mxCell id="8HDtVF-WBR14o8vTxIzw-110" style="edgeStyle=orthogonalEdgeStyle;rounded=0;orthogonalLoop=1;jettySize=auto;html=1;entryX=0;entryY=0.5;entryDx=0;entryDy=0;" edge="1" parent="1" source="8HDtVF-WBR14o8vTxIzw-107" target="8HDtVF-WBR14o8vTxIzw-106">
          <mxGeometry relative="1" as="geometry" />
        </mxCell>
        <mxCell id="8HDtVF-WBR14o8vTxIzw-111" value="Обработка &lt;br&gt;звонков" style="edgeLabel;html=1;align=center;verticalAlign=middle;resizable=0;points=[];labelBackgroundColor=none;" vertex="1" connectable="0" parent="8HDtVF-WBR14o8vTxIzw-110">
          <mxGeometry x="-0.2338" y="-1" relative="1" as="geometry">
            <mxPoint y="1" as="offset" />
          </mxGeometry>
        </mxCell>
        <mxCell id="8HDtVF-WBR14o8vTxIzw-107" value="Сотрудники&amp;nbsp;&lt;br&gt;кол-центра" style="shape=umlActor;verticalLabelPosition=bottom;verticalAlign=top;html=1;outlineConnect=0;" vertex="1" parent="1">
          <mxGeometry x="20" y="2172" width="30" height="61" as="geometry" />
        </mxCell>
        <mxCell id="8HDtVF-WBR14o8vTxIzw-113" style="edgeStyle=orthogonalEdgeStyle;rounded=0;orthogonalLoop=1;jettySize=auto;html=1;" edge="1" parent="1" source="8HDtVF-WBR14o8vTxIzw-112" target="8HDtVF-WBR14o8vTxIzw-75">
          <mxGeometry relative="1" as="geometry" />
        </mxCell>
        <mxCell id="8HDtVF-WBR14o8vTxIzw-114" value="Доставляет сообщение&lt;br&gt;до клиента" style="edgeLabel;html=1;align=center;verticalAlign=middle;resizable=0;points=[];labelBackgroundColor=none;" vertex="1" connectable="0" parent="8HDtVF-WBR14o8vTxIzw-113">
          <mxGeometry x="-0.2843" y="3" relative="1" as="geometry">
            <mxPoint x="24" y="24" as="offset" />
          </mxGeometry>
        </mxCell>
        <mxCell id="8HDtVF-WBR14o8vTxIzw-112" value="Телеком оператор" style="rounded=1;whiteSpace=wrap;html=1;fillColor=#CCCCCC;" vertex="1" parent="1">
          <mxGeometry x="580" y="1750" width="150" height="43" as="geometry" />
        </mxCell>
        <mxCell id="8HDtVF-WBR14o8vTxIzw-117" value="Система кол-центра партнера" style="rounded=1;whiteSpace=wrap;html=1;fillColor=#CCCCCC;" vertex="1" parent="1">
          <mxGeometry x="180" y="2308" width="160" height="45" as="geometry" />
        </mxCell>
        <mxCell id="8HDtVF-WBR14o8vTxIzw-118" style="edgeStyle=orthogonalEdgeStyle;rounded=0;orthogonalLoop=1;jettySize=auto;html=1;entryX=0;entryY=0.5;entryDx=0;entryDy=0;" edge="1" parent="1" source="8HDtVF-WBR14o8vTxIzw-120" target="8HDtVF-WBR14o8vTxIzw-117">
          <mxGeometry relative="1" as="geometry" />
        </mxCell>
        <mxCell id="8HDtVF-WBR14o8vTxIzw-119" value="Обработка &lt;br&gt;звонков" style="edgeLabel;html=1;align=center;verticalAlign=middle;resizable=0;points=[];labelBackgroundColor=none;" vertex="1" connectable="0" parent="8HDtVF-WBR14o8vTxIzw-118">
          <mxGeometry x="-0.2338" y="-1" relative="1" as="geometry">
            <mxPoint y="1" as="offset" />
          </mxGeometry>
        </mxCell>
        <mxCell id="8HDtVF-WBR14o8vTxIzw-120" value="Сотрудники&amp;nbsp;&lt;br&gt;кол-центра&lt;br&gt;партнера" style="shape=umlActor;verticalLabelPosition=bottom;verticalAlign=top;html=1;outlineConnect=0;" vertex="1" parent="1">
          <mxGeometry x="20" y="2300" width="30" height="61" as="geometry" />
        </mxCell>
        <mxCell id="8HDtVF-WBR14o8vTxIzw-121" value="Интернет банк" style="rounded=1;whiteSpace=wrap;html=1;fillColor=#CCCCCC;" vertex="1" parent="1">
          <mxGeometry x="490" y="2000" width="150" height="43" as="geometry" />
        </mxCell>
        <mxCell id="8HDtVF-WBR14o8vTxIzw-124" style="edgeStyle=orthogonalEdgeStyle;rounded=0;orthogonalLoop=1;jettySize=auto;html=1;entryX=1.001;entryY=0.812;entryDx=0;entryDy=0;entryPerimeter=0;" edge="1" parent="1" source="8HDtVF-WBR14o8vTxIzw-121" target="8HDtVF-WBR14o8vTxIzw-64">
          <mxGeometry relative="1" as="geometry" />
        </mxCell>
        <mxCell id="8HDtVF-WBR14o8vTxIzw-125" value="Проведение платежей&lt;br&gt;открытие текущих счетов" style="edgeLabel;html=1;align=center;verticalAlign=middle;resizable=0;points=[];labelBackgroundColor=none;" vertex="1" connectable="0" parent="8HDtVF-WBR14o8vTxIzw-124">
          <mxGeometry x="-0.2195" relative="1" as="geometry">
            <mxPoint x="-20" as="offset" />
          </mxGeometry>
        </mxCell>
      </root>
    </mxGraphModel>
  </diagram>
</mxfile>
